<?xml version="1.0" encoding="iso-8859-1"?>
<!-- Generator: Adobe Illustrator 19.0.0, SVG Export Plug-In . SVG Version: 6.00 Build 0)  -->
<svg version="1.1" id="Capa_1" xmlns="http://www.w3.org/2000/svg" x="0px" y="0px"
	 viewBox="0 0 511.992 511.992" style="enable-background:new 0 0 511.992 511.992;" xml:space="preserve">
<polygon style="fill:#1976D2;" points="247.013,340.97 160.005,495.978 340.997,386.794 "/>
<path style="fill:#2196F3;" d="M506.021,19.53c-4.448-3.584-10.592-4.512-15.968-2.4l-480,192
	c-5.92,2.368-9.888,8.032-10.048,14.432s3.488,12.256,9.312,14.944l416,192c2.112,0.96,4.416,1.472,6.688,1.472
	c2.56,0,5.152-0.64,7.456-1.856c4.448-2.336,7.488-6.592,8.32-11.52l64-384C512.709,28.938,510.533,23.146,506.021,19.53z"/>
<polygon style="fill:#64B5F6;" points="496.005,31.978 160.005,308.074 160.005,495.978 248.005,348.682 "/>
<g>
</g>
<g>
</g>
<g>
</g>
<g>
</g>
<g>
</g>
<g>
</g>
<g>
</g>
<g>
</g>
<g>
</g>
<g>
</g>
<g>
</g>
<g>
</g>
<g>
</g>
<g>
</g>
<g>
</g>
</svg>
